{"accessors" : [{"bufferView" : 0, "byteOffset" : 0, "componentType" : 5123, "count" : 4986, "type" : "SCALAR", "max" : [3859], "min" : [0]}, {"bufferView" : 1, "byteOffset" : 0, "componentType" : 5126, "count" : 3860, "type" : "VEC3", "max" : [0.7098882794380188, 1.3921724557876587, 0.5817603468894958], "min" : [-0.5340000987052917, 3.976873941269332E-08, -0.5837967991828918], "name" : "POSITION"}, {"bufferView" : 1, "byteOffset" : 12, "componentType" : 5126, "count" : 3860, "type" : "VEC3", "max" : [1.0000044107437134, 1.0000044107437134, 1.0000044107437134], "min" : [-1.0000044107437134, -1.0000044107437134, -1.0000044107437134], "name" : "NORMAL"}, {"bufferView" : 1, "byteOffset" : 24, "componentType" : 5126, "count" : 3860, "type" : "VEC2", "max" : [0.9723485708236694, 0.9951171875], "min" : [0.0048828125, 0.0048828125], "name" : "TEXCOORD_0"}, {"bufferView" : 0, "byteOffset" : 9972, "componentType" : 5123, "count" : 16554, "type" : "SCALAR", "max" : [14532], "min" : [0]}, {"bufferView" : 2, "byteOffset" : 0, "componentType" : 5126, "count" : 14533, "type" : "VEC3", "max" : [0.044001504778862, 0.01962103880941868, 0.05060799419879913], "min" : [-0.04468468576669693, 0, -0.05153663456439972], "name" : "POSITION"}, {"bufferView" : 2, "byteOffset" : 12, "componentType" : 5126, "count" : 14533, "type" : "VEC3", "max" : [1.0000044107437134, 1.0000044107437134, 1.0000042915344238], "min" : [-1.0000044107437134, -1.0000044107437134, -1.0000044107437134], "name" : "NORMAL"}, {"bufferView" : 2, "byteOffset" : 24, "componentType" : 5126, "count" : 14533, "type" : "VEC2", "max" : [1, 1], "min" : [0, 1], "name" : "TEXCOORD_0"}, {"bufferView" : 0, "byteOffset" : 43080, "componentType" : 5123, "count" : 1140, "type" : "SCALAR", "max" : [951], "min" : [0]}, {"bufferView" : 3, "byteOffset" : 0, "componentType" : 5126, "count" : 952, "type" : "VEC3", "max" : [0.09013453125953674, 0.01678207702934742, 0.09296546131372452], "min" : [-0.0904717743396759, -0.011197181418538094, -0.08750680834054947], "name" : "POSITION"}, {"bufferView" : 3, "byteOffset" : 12, "componentType" : 5126, "count" : 952, "type" : "VEC3", "max" : [0.9951765537261963, 0.9999917149543762, 0.9951891899108887], "min" : [-0.9951765537261963, -0.9999917149543762, -0.9951891899108887], "name" : "NORMAL"}, {"bufferView" : 3, "byteOffset" : 24, "componentType" : 5126, "count" : 952, "type" : "VEC2", "max" : [1, 0.9900000095367432], "min" : [0, 0], "name" : "TEXCOORD_0"}, {"bufferView" : 0, "byteOffset" : 45360, "componentType" : 5123, "count" : 16554, "type" : "SCALAR", "max" : [14770], "min" : [0]}, {"bufferView" : 4, "byteOffset" : 0, "componentType" : 5126, "count" : 14771, "type" : "VEC3", "max" : [0.04476885497570038, 0.0030182339251041412, 0.05060799419879913], "min" : [-0.04401501640677452, -0.01704913191497326, -0.05153663456439972], "name" : "POSITION"}, {"bufferView" : 4, "byteOffset" : 12, "componentType" : 5126, "count" : 14771, "type" : "VEC3", "max" : [0.9999917149543762, 1.0000044107437134, 1.0000044107437134], "min" : [-0.9999917149543762, -0.9999967813491821, -1.0000044107437134], "name" : "NORMAL"}, {"bufferView" : 4, "byteOffset" : 24, "componentType" : 5126, "count" : 14771, "type" : "VEC2", "max" : [1, 1], "min" : [0, 1], "name" : "TEXCOORD_0"}], "asset" : {"generator" : "Aspose.3D 22.1", "version" : "2.0"}, "buffers" : [{"uri" : "data:application/octet-stream;base64,", "byteLength" : 1333976}], "bufferViews" : [{"buffer" : 0, "byteOffset" : 0, "byteLength" : 78468, "target" : 34963}, {"buffer" : 0, "byteOffset" : 78472, "byteLength" : 159552, "byteStride" : 32, "target" : 34962}, {"buffer" : 0, "byteOffset" : 238028, "byteLength" : 529728, "byteStride" : 32, "target" : 34962}, {"buffer" : 0, "byteOffset" : 767760, "byteLength" : 36480, "byteStride" : 32, "target" : 34962}, {"buffer" : 0, "byteOffset" : 804244, "byteLength" : 529728, "byteStride" : 32, "target" : 34962}], "images" : [{"uri" : "data:image/png;base64,"}], "materials" : [{"name" : "blinn1", "pbrMetallicRoughness" : {"baseColorFactor" : [1, 1, 1, 1], "baseColorTexture" : {"index" : 0, "texCoord" : 0}, "metallicFactor" : 0.5, "roughnessFactor" : 0.7487671971321106}, "emissiveFactor" : [0, 0, 0], "alphaMode" : "OPAQUE", "doubleSided" : true}, {"name" : "SVGMat.001", "pbrMetallicRoughness" : {"baseColorFactor" : [1, 1, 1, 1], "metallicFactor" : 0, "roughnessFactor" : 0.4000000059604645}, "emissiveFactor" : [0, 0, 0], "alphaMode" : "OPAQUE", "doubleSided" : true}, {"name" : "Material.001", "pbrMetallicRoughness" : {"baseColorFactor" : [0.3049808740615845, 0.22619807720184326, 0.007546542212367058, 1], "metallicFactor" : 0.5625, "roughnessFactor" : 0.026785671710968018}, "emissiveFactor" : [0, 0, 0], "alphaMode" : "OPAQUE", "doubleSided" : true}, {"name" : "SVGMat", "pbrMetallicRoughness" : {"baseColorFactor" : [1, 1, 1, 1], "metallicFactor" : 0.7007299065589905, "roughnessFactor" : 0.4000000059604645}, "emissiveFactor" : [0, 0, 0], "alphaMode" : "OPAQUE", "doubleSided" : true}], "meshes" : [{"primitives" : [{"attributes" : {"POSITION" : 1, "NORMAL" : 2, "TEXCOORD_0" : 3}, "indices" : 0, "material" : 0, "mode" : 4}]}, {"primitives" : [{"attributes" : {"POSITION" : 5, "NORMAL" : 6, "TEXCOORD_0" : 7}, "indices" : 4, "material" : 1, "mode" : 4}, {"attributes" : {"POSITION" : 9, "NORMAL" : 10, "TEXCOORD_0" : 11}, "indices" : 8, "material" : 2, "mode" : 4}, {"attributes" : {"POSITION" : 13, "NORMAL" : 14, "TEXCOORD_0" : 15}, "indices" : 12, "material" : 3, "mode" : 4}]}], "nodes" : [{"mesh" : 0, "name" : "gift"}, {"children" : [0], "matrix" : [0, -2.940977239518361E-09, 0.09868281785598931, 0, -0.09868281785598931, 0, -2.940977239518361E-09, 0, 2.940977239518361E-09, -0.09868281785598931, 0, 0, 0, 0, 0, 1], "name" : "giftJnts"}, {"matrix" : [-4.244802720968868, -2.897828897477417E-05, 0.021374813633783848, 0, -0.021374833277012374, 0.005757091580266837, -4.2447987268314105, 0, -1.217420474022462E-08, -4.244852066416975, -0.0057573437290575295, 0, 0.027211666107177734, 0.7200325727462769, -0.01790263131260872, 1], "mesh" : 1, "name" : "Curve.002"}], "samplers" : [{"magFilter" : 9729, "minFilter" : 9987, "wrapS" : 10497, "wrapT" : 10497}], "scene" : 0, "scenes" : [{"nodes" : [1, 2]}], "textures" : [{"sampler" : 0, "source" : 0}]}