{
  "asset": {
    "version": "2.0",
    "generator": "THREE.GLTFExporter"
  },
  "scenes": [
    {
      "name": "Scene",
      "nodes": [
        1,
        3,
        7
      ]
    }
  ],
  "scene": 0,
  "nodes": [
    {
      "matrix": [
        1,
        0,
        0,
        0,
        0,
        1,
        0,
        0,
        0,
        0,
        -1,
        0,
        0,
        0,
        0,
        1
      ],
      "name": "BezierCurve001",
      "extras": {
        "name": "BezierCurve.001"
      }
    },
    {
      "name": "glasses1.glb",
      "children": [
        0
      ]
    },
    {
      "matrix": [
        1,
        0,
        0,
        0,
        0,
        1,
        0,
        0,
        0,
        0,
        -1,
        0,
        0,
        0,
        0,
        1
      ],
      "name": "BezierCurve001",
      "extras": {
        "name": "BezierCurve.001"
      }
    },
    {
      "name": "glasses1.glb",
      "children": [
        2
      ]
    },
    {
      "name": "BezierCurve001_1",
      "mesh": 0
    },
    {
      "name": "BezierCurve001_2",
      "mesh": 1
    },
    {
      "name": "BezierCurve001",
      "extras": {
        "name": "BezierCurve.001"
      },
      "children": [
        4,
        5
      ]
    },
    {
      "name": "glasses1-gltf.gltf",
      "children": [
        6
      ]
    }
  ],
  "bufferViews": [
    {
      "buffer": 0,
      "byteOffset": 0,
      "byteLength": 91596,
      "target": 34962,
      "byteStride": 12
    },
    {
      "buffer": 0,
      "byteOffset": 91596,
      "byteLength": 91596,
      "target": 34962,
      "byteStride": 12
    },
    {
      "buffer": 0,
      "byteOffset": 183192,
      "byteLength": 61064,
      "target": 34962,
      "byteStride": 8
    },
    {
      "buffer": 0,
      "byteOffset": 244256,
      "byteLength": 62616,
      "target": 34963
    },
    {
      "buffer": 0,
      "byteOffset": 306872,
      "byteLength": 488952,
      "target": 34962,
      "byteStride": 12
    },
    {
      "buffer": 0,
      "byteOffset": 795824,
      "byteLength": 488952,
      "target": 34962,
      "byteStride": 12
    },
    {
      "buffer": 0,
      "byteOffset": 1284776,
      "byteLength": 325968,
      "target": 34962,
      "byteStride": 8
    },
    {
      "buffer": 0,
      "byteOffset": 1610744,
      "byteLength": 88056,
      "target": 34963
    }
  ],
  "buffers": [
    {
      "byteLength": 1698800,
      "uri": "data:application/octet-stream;base64,"
    }
  ],
  "accessors": [
    {
      "bufferView": 0,
      "componentType": 5126,
      "count": 7633,
      "max": [
        1.0018668174743652,
        0.2729795575141907,
        0.19295229017734528
      ],
      "min": [
        -1.0020411014556885,
        -0.4252495765686035,
        -0.9861628413200378
      ],
      "type": "VEC3"
    },
    {
      "bufferView": 1,
      "componentType": 5126,
      "count": 7633,
      "max": [
        0.9999998807907104,
        1,
        0.9999998211860657
      ],
      "min": [
        -0.9999998211860657,
        -1.0000001192092896,
        -0.9999998807907104
      ],
      "type": "VEC3"
    },
    {
      "bufferView": 2,
      "componentType": 5126,
      "count": 7633,
      "max": [
        0.31175005435943604,
        0.9991462230682373
      ],
      "min": [
        0.2065168023109436,
        0.01413106918334961
      ],
      "type": "VEC2"
    },
    {
      "bufferView": 3,
      "componentType": 5123,
      "count": 31308,
      "max": [
        7632
      ],
      "min": [
        0
      ],
      "type": "SCALAR"
    },
    {
      "bufferView": 4,
      "componentType": 5126,
      "count": 40746,
      "max": [
        1.0058786869049072,
        0.25287821888923645,
        0.20230887830257416
      ],
      "min": [
        -1.007225751876831,
        -0.4196625351905823,
        -1.9639719724655151
      ],
      "type": "VEC3"
    },
    {
      "bufferView": 5,
      "componentType": 5126,
      "count": 40746,
      "max": [
        1,
        0.999988853931427,
        0.9999285936355591
      ],
      "min": [
        -1,
        -0.9999880194664001,
        -0.9999783039093018
      ],
      "type": "VEC3"
    },
    {
      "bufferView": 6,
      "componentType": 5126,
      "count": 40746,
      "max": [
        0.936750054359436,
        0.9991462230682373
      ],
      "min": [
        0.27424997091293335,
        0.009899258613586426
      ],
      "type": "VEC2"
    },
    {
      "bufferView": 7,
      "componentType": 5123,
      "count": 44028,
      "max": [
        40745
      ],
      "min": [
        0
      ],
      "type": "SCALAR"
    }
  ],
  "materials": [
    {
      "pbrMetallicRoughness": {
        "metallicFactor": 1,
        "roughnessFactor": 0,
        "baseColorTexture": {
          "index": 0
        }
      },
      "doubleSided": true,
      "name": "Material.004"
    },
    {
      "pbrMetallicRoughness": {
        "metallicFactor": 0,
        "roughnessFactor": 0.5,
        "baseColorTexture": {
          "index": 0
        }
      },
      "alphaMode": "BLEND",
      "doubleSided": true,
      "name": "Transparent_Brown_8A570.003"
    }
  ],
  "textures": [
    {
      "sampler": 0,
      "source": 0
    }
  ],
  "samplers": [
    {
      "magFilter": 9729,
      "minFilter": 9987,
      "wrapS": 10497,
      "wrapT": 10497
    }
  ],
  "images": [
    {
      "mimeType": "image/png",
      "uri": "data:image/png;base64,"
    }
  ],
  "meshes": [
    {
      "primitives": [
        {
          "mode": 4,
          "attributes": {
            "POSITION": 0,
            "NORMAL": 1,
            "TEXCOORD_0": 2
          },
          "indices": 3,
          "material": 0
        }
      ]
    },
    {
      "primitives": [
        {
          "mode": 4,
          "attributes": {
            "POSITION": 4,
            "NORMAL": 5,
            "TEXCOORD_0": 6
          },
          "indices": 7,
          "material": 1
        }
      ]
    }
  ]
}